# Blender 3.6.22
# www.blender.org
mtllib ls400_wheel.mtl
o celsior.151
v -0.365333 0.383147 0.121510
v 0.373595 0.383147 0.121510
v -0.365333 -0.355781 0.121510
v 0.373595 -0.355781 0.121510
v -0.438413 -0.274580 -0.262348
v -0.511494 -0.087818 -0.262348
v -0.438413 0.301946 -0.262348
v -0.511494 0.115184 -0.262348
v -0.284132 -0.428861 -0.262348
v -0.438413 -0.274580 -0.262348
v -0.284132 0.456227 -0.262348
v -0.438413 0.301946 -0.262348
v -0.097370 -0.501942 -0.262348
v -0.284132 -0.428861 -0.262348
v -0.097370 0.529308 -0.262348
v -0.284132 0.456227 -0.262348
v 0.105632 -0.501942 -0.262348
v 0.105632 0.529308 -0.262348
v -0.097370 -0.501942 -0.262348
v -0.097370 0.529308 -0.262348
v 0.292394 -0.428861 -0.262348
v 0.105632 -0.501942 -0.262348
v 0.292394 0.456227 -0.262348
v 0.105632 0.529308 -0.262348
v 0.446675 -0.274580 -0.262348
v 0.292394 -0.428861 -0.262348
v 0.446675 0.301946 -0.262348
v 0.292394 0.456227 -0.262348
v 0.519756 -0.087818 -0.262348
v 0.446675 -0.274580 -0.262348
v 0.519756 0.115184 -0.262348
v 0.446675 0.301946 -0.262348
v 0.519756 -0.087818 -0.262348
v 0.519756 0.115184 -0.262348
v 0.519756 -0.087818 0.143902
v 0.519756 0.115184 0.143902
v 0.446675 -0.274580 -0.262348
v 0.446675 -0.274580 0.143902
v 0.519756 -0.087818 -0.262348
v 0.519756 -0.087818 0.143902
v 0.292394 -0.428861 -0.262348
v 0.446675 -0.274580 -0.262348
v 0.292394 -0.428861 0.143902
v 0.446675 -0.274580 0.143902
v 0.105632 -0.501942 -0.262348
v 0.292394 -0.428861 -0.262348
v 0.105632 -0.501942 0.143902
v 0.292394 -0.428861 0.143902
v -0.097370 -0.501942 -0.262348
v 0.105632 -0.501942 -0.262348
v -0.097370 -0.501942 0.143902
v 0.105632 -0.501942 0.143902
v -0.284132 -0.428861 -0.262348
v -0.097370 -0.501942 -0.262348
v -0.284132 -0.428861 0.143902
v -0.097370 -0.501942 0.143902
v -0.438413 -0.274580 -0.262348
v -0.284132 -0.428861 -0.262348
v -0.438413 -0.274580 0.143902
v -0.284132 -0.428861 0.143902
v -0.511494 -0.087818 -0.262348
v -0.438413 -0.274580 -0.262348
v -0.511494 -0.087818 0.143902
v -0.438413 -0.274580 0.143902
v -0.511494 0.115184 -0.262348
v -0.511494 -0.087818 -0.262348
v -0.511494 0.115184 0.143902
v -0.511494 -0.087818 0.143902
v -0.438413 0.301946 -0.262348
v -0.511494 0.115184 -0.262348
v -0.438413 0.301946 0.143902
v -0.511494 0.115184 0.143902
v -0.284132 0.456227 -0.262348
v -0.438413 0.301946 -0.262348
v -0.284132 0.456227 0.143902
v -0.438413 0.301946 0.143902
v -0.097370 0.529308 -0.262348
v -0.284132 0.456227 -0.262348
v -0.097370 0.529308 0.143902
v -0.284132 0.456227 0.143902
v 0.105632 0.529308 -0.262348
v -0.097370 0.529308 -0.262348
v 0.105632 0.529308 0.143902
v -0.097370 0.529308 0.143902
v 0.292394 0.456227 -0.262348
v 0.292394 0.456227 0.143902
v 0.105632 0.529308 -0.262348
v 0.105632 0.529308 0.143902
v 0.446675 0.301946 -0.262348
v 0.292394 0.456227 -0.262348
v 0.446675 0.301946 0.143902
v 0.292394 0.456227 0.143902
v 0.519756 0.115184 -0.262348
v 0.446675 0.301946 -0.262348
v 0.519756 0.115184 0.143902
v 0.446675 0.301946 0.143902
v 0.316754 0.220745 0.143902
v 0.373595 0.082704 0.143902
v 0.446675 0.301946 0.143902
v 0.519756 0.115184 0.143902
v 0.211193 0.326306 0.143902
v 0.316754 0.220745 0.143902
v 0.292394 0.456227 0.143902
v 0.446675 0.301946 0.143902
v 0.073152 0.383147 0.143902
v 0.211193 0.326306 0.143902
v 0.105632 0.529308 0.143902
v 0.292394 0.456227 0.143902
v -0.064890 0.383147 0.143902
v 0.073152 0.383147 0.143902
v -0.097370 0.529308 0.143902
v 0.105632 0.529308 0.143902
v -0.202931 0.326306 0.143902
v -0.064890 0.383147 0.143902
v -0.284132 0.456227 0.143902
v -0.097370 0.529308 0.143902
v -0.308492 0.220745 0.143902
v -0.202931 0.326306 0.143902
v -0.438413 0.301946 0.143902
v -0.284132 0.456227 0.143902
v -0.365333 0.082704 0.143902
v -0.308492 0.220745 0.143902
v -0.511494 0.115184 0.143902
v -0.438413 0.301946 0.143902
v -0.365333 -0.055338 0.143902
v -0.365333 0.082704 0.143902
v -0.511494 -0.087818 0.143902
v -0.511494 0.115184 0.143902
v -0.308492 -0.193379 0.143902
v -0.365333 -0.055338 0.143902
v -0.339713 -0.212892 0.143902
v -0.438413 -0.274580 0.143902
v -0.417280 -0.211181 0.143902
v -0.463621 -0.210158 0.143902
v -0.511494 -0.087818 0.143902
v -0.202931 -0.298940 0.143902
v -0.284132 -0.428861 0.143902
v -0.287834 -0.214037 0.143902
v -0.308492 -0.193379 0.143902
v -0.306397 -0.213627 0.143902
v -0.339713 -0.212892 0.143902
v -0.438413 -0.274580 0.143902
v -0.064890 -0.355781 0.143902
v -0.202931 -0.298940 0.143902
v -0.097370 -0.501942 0.143902
v -0.284132 -0.428861 0.143902
v 0.073152 -0.355781 0.143902
v -0.064890 -0.355781 0.143902
v 0.105632 -0.501942 0.143902
v -0.097370 -0.501942 0.143902
v 0.211193 -0.298940 0.143902
v 0.073152 -0.355781 0.143902
v 0.292394 -0.428861 0.143902
v 0.105632 -0.501942 0.143902
v 0.316754 -0.193379 0.143902
v 0.373142 -0.228621 0.143902
v 0.283490 -0.226643 0.143902
v 0.211193 -0.298940 0.143902
v 0.292394 -0.428861 0.143902
v 0.446675 -0.274580 0.143902
v 0.373595 -0.055338 0.143902
v 0.316754 -0.193379 0.143902
v 0.519756 -0.087818 0.143902
v 0.463876 -0.230623 0.143902
v 0.446675 -0.274580 0.143902
v 0.373142 -0.228621 0.143902
v 0.373595 0.082704 0.143902
v 0.373595 -0.055338 0.143902
v 0.519756 0.115184 0.143902
v 0.519756 -0.087818 0.143902
vn -0.0000 -0.0022 1.0000
vn -0.0000 -0.0022 -1.0000
vn 1.0000 -0.0022 -0.0000
vn 0.9278 -0.3730 -0.0000
vn 0.7077 -0.7065 -0.0000
vn 0.7078 -0.7064 -0.0000
vn 0.3710 -0.9286 -0.0000
vn -0.0000 -1.0000 -0.0000
vn -0.3710 -0.9286 -0.0000
vn -0.7078 -0.7064 -0.0000
vn -0.7077 -0.7065 -0.0000
vn -0.9278 -0.3731 0.0038
vn -1.0000 -0.0022 -0.0000
vn -0.9278 0.3731 -0.0000
vn -0.9278 0.3730 -0.0000
vn -0.7079 0.7063 0.0038
vn -0.3710 0.9286 -0.0000
vn -0.0000 1.0000 -0.0000
vn 0.3710 0.9286 -0.0000
vn 0.7078 0.7064 -0.0000
vn 0.7077 0.7065 -0.0000
vn 0.9278 0.3730 -0.0000
vn 0.0019 0.0012 1.0000
vn 0.0014 -0.0017 1.0000
vn 0.0013 0.0018 1.0000
vn 0.0011 -0.0019 1.0000
vn 0.0018 0.0012 1.0000
vn 0.0021 -0.0008 1.0000
vn 0.0012 -0.0018 1.0000
vn 0.0021 -0.0006 1.0000
vn 0.0022 -0.0002 1.0000
vn -0.0017 -0.0014 1.0000
vn 0.0020 0.0010 1.0000
vn 0.0019 0.0011 1.0000
vn 0.0009 -0.0020 1.0000
vn 0.0021 0.0007 1.0000
vn -0.0002 -0.0022 1.0000
vn 0.0020 0.0009 1.0000
vn 0.0005 -0.0021 1.0000
vn 0.0016 -0.0015 1.0000
vn 0.0007 -0.0021 1.0000
vn 0.0021 0.0006 1.0000
vt 0.000000 -0.999997
vt 0.000000 -0.816369
vt 0.183594 -0.999997
vt 0.183594 -0.816369
vt 0.027345 -0.027377
vt 0.003900 -0.027377
vt 0.027345 -0.003906
vt 0.003900 -0.003906
vt 0.020565 -0.010693
vt 0.027345 -0.021737
vt 0.019258 -0.003906
vt 0.008488 -0.027377
vt 0.005916 -0.025359
vt 0.003900 -0.021737
vt 0.019957 -0.027377
vt 0.027345 -0.017190
vt 0.003900 -0.017190
vt 0.009418 -0.003906
s 0
usemtl "".007
f 1/1/1 3/2/1 2/3/1
f 3/2/1 4/4/1 2/3/1
f 5/5/2 6/6/2 7/7/2
f 6/6/2 8/8/2 7/7/2
f 9/5/2 10/6/2 11/7/2
f 10/6/2 12/8/2 11/7/2
f 13/5/2 14/6/2 15/7/2
f 14/6/2 16/8/2 15/7/2
f 17/5/2 19/6/2 18/7/2
f 19/6/2 20/8/2 18/7/2
f 21/5/2 22/6/2 23/7/2
f 22/6/2 24/8/2 23/7/2
f 25/5/2 26/6/2 27/7/2
f 26/6/2 28/8/2 27/7/2
f 29/5/2 30/6/2 31/7/2
f 30/6/2 32/8/2 31/7/2
f 33/5/3 34/6/3 35/7/3
f 34/6/3 36/8/3 35/7/3
f 37/5/4 39/6/4 38/7/4
f 39/6/4 40/8/4 38/7/4
f 41/5/5 42/6/5 43/7/5
f 42/6/6 44/8/6 43/7/6
f 45/5/7 46/6/7 47/7/7
f 46/6/7 48/8/7 47/7/7
f 49/5/8 50/6/8 51/7/8
f 50/6/8 52/8/8 51/7/8
f 53/5/9 54/6/9 55/7/9
f 54/6/9 56/8/9 55/7/9
f 57/5/10 58/6/10 59/7/10
f 58/6/11 60/8/11 59/7/11
f 61/5/12 62/6/12 63/7/12
f 62/6/12 64/8/12 63/7/12
f 65/5/13 66/6/13 67/7/13
f 66/6/13 68/8/13 67/7/13
f 69/5/14 70/6/14 71/7/14
f 70/6/15 72/8/15 71/7/15
f 73/5/16 74/6/16 75/7/16
f 74/6/16 76/8/16 75/7/16
f 77/5/17 78/6/17 79/7/17
f 78/6/17 80/8/17 79/7/17
f 81/5/18 82/6/18 83/7/18
f 82/6/18 84/8/18 83/7/18
f 85/5/19 87/6/19 86/7/19
f 87/6/19 88/8/19 86/7/19
f 89/5/20 90/6/20 91/7/20
f 90/6/21 92/8/21 91/7/21
f 93/5/22 94/6/22 95/7/22
f 94/6/22 96/8/22 95/7/22
f 97/5/1 98/6/1 99/7/1
f 98/6/1 100/8/1 99/7/1
f 101/5/1 102/6/1 103/7/1
f 102/6/1 104/8/1 103/7/1
f 105/5/1 106/6/1 107/7/1
f 106/6/1 108/8/1 107/7/1
f 109/5/1 110/6/1 111/7/1
f 110/6/1 112/8/1 111/7/1
f 113/5/1 114/6/1 115/7/1
f 114/6/1 116/8/1 115/7/1
f 117/5/1 118/6/1 119/7/1
f 118/6/1 120/8/1 119/7/1
f 121/5/1 122/6/1 123/7/1
f 122/6/1 124/8/1 123/7/1
f 125/5/1 126/6/1 127/7/1
f 126/6/1 128/8/1 127/7/1
f 129/5/1 130/6/1 133/9/23 131/10/24
f 131/10/25 133/9/26 132/7/1
f 133/9/27 134/11/1 132/7/1
f 130/6/1 135/8/1 134/11/28 133/9/29
f 136/5/1 138/12/30 140/13/1 137/7/1
f 140/13/31 138/12/32 139/6/1
f 140/13/33 141/14/30 142/8/1 137/7/1
f 139/6/1 141/14/34 140/13/35
f 143/5/1 144/6/1 145/7/1
f 144/6/1 146/8/1 145/7/1
f 147/5/1 148/6/1 149/7/1
f 148/6/1 150/8/1 149/7/1
f 151/5/1 152/6/1 153/7/1
f 152/6/1 154/8/1 153/7/1
f 155/5/1 157/15/36 156/16/37
f 156/16/38 157/15/39 158/6/1 160/7/1
f 158/6/1 159/8/1 160/7/1
f 161/5/1 162/6/1 163/7/1
f 162/6/1 166/17/40 164/18/41 163/7/1
f 164/18/42 166/17/37 165/8/1
f 167/5/1 168/6/1 169/7/1
f 168/6/1 170/8/1 169/7/1
