# Blender 3.6.22
# www.blender.org
o pbr
v 0.202966 0.009520 0.230715
v 0.202993 -0.007382 0.226061
v 0.202957 0.008320 0.226115
v 0.202979 0.008290 0.235316
v 0.202995 0.004960 0.238667
v 0.203008 -0.008613 0.230652
v 0.203011 0.000423 0.239884
v 0.203017 -0.004106 0.238636
v 0.203015 -0.007413 0.235261
v 0.202955 0.005013 0.222739
v 0.202978 -0.004053 0.222708
v 0.202964 0.000485 0.221492
v -0.146720 0.013837 0.129316
v -0.158261 0.013668 0.171370
v -0.169647 0.013658 0.165925
v -0.136837 0.013834 0.137152
v -0.116212 0.014014 0.098729
v -0.146720 0.013837 0.129316
v -0.108317 0.014000 0.108557
v -0.136837 0.013834 0.137152
v -0.116212 0.014014 0.098729
v -0.036006 0.014295 0.073612
v -0.038844 0.014329 0.061340
v -0.074130 0.014157 0.087018
v 0.185201 0.014257 0.248872
v 0.197817 0.014288 0.248847
v 0.185267 -0.013559 0.248778
v 0.197883 -0.013528 0.248753
v 0.016435 -0.006396 0.061327
v 0.011274 -0.011504 0.061320
v 0.011116 -0.011295 -0.001212
v 0.016277 -0.006189 -0.001205
v 0.004056 -0.013172 -0.001205
v -0.003010 -0.011330 -0.001184
v 0.004214 -0.013381 0.061327
v -0.002851 -0.011538 0.061348
v -0.008038 -0.006457 0.061377
v -0.008197 -0.006248 -0.001154
v -0.010101 0.000701 -0.001127
v -0.008230 0.007659 -0.001108
v -0.009942 0.000492 0.061404
v -0.008071 0.007451 0.061424
v -0.002909 0.012558 0.061430
v -0.003069 0.012766 -0.001101
v 0.003990 0.014643 -0.001109
v 0.004149 0.014435 0.061423
v 0.011056 0.012801 -0.001130
v 0.011215 0.012593 0.061402
v 0.016243 0.007720 -0.001158
v 0.016402 0.007512 0.061374
v 0.018149 0.000770 -0.001186
v 0.018308 0.000562 0.061347
v 0.018149 0.000770 -0.001186
v 0.018308 0.000562 0.061347
v 0.016277 -0.006189 -0.001205
v 0.018308 0.000562 0.061347
v 0.016277 -0.006189 -0.001205
v 0.016435 -0.006396 0.061327
v -0.175881 -0.014453 0.249502
v -0.175947 0.013363 0.249597
v -0.188498 -0.014484 0.249527
v -0.188563 0.013333 0.249622
v -0.169647 0.013658 0.165925
v -0.158261 0.013668 0.171370
v -0.171522 0.013508 0.209483
v -0.183831 0.013486 0.206703
v -0.175947 0.013363 0.249597
v -0.188563 0.013333 0.249622
v -0.116212 0.014014 0.098729
v -0.079637 0.014181 0.075680
v -0.108317 0.014000 0.108557
v -0.136837 0.013834 0.137152
v -0.146720 0.013837 0.129316
v -0.158261 0.013668 0.171370
v -0.116147 -0.013803 0.098634
v -0.116212 0.014014 0.098729
v -0.079573 -0.013635 0.075585
v -0.146656 -0.013979 0.129223
v -0.146720 0.013837 0.129316
v -0.169647 0.013658 0.165925
v -0.169582 -0.014158 0.165829
v -0.183831 0.013486 0.206703
v -0.183766 -0.014330 0.206609
v -0.188563 0.013333 0.249622
v -0.188498 -0.014484 0.249527
v -0.079637 0.014181 0.075680
v -0.038779 -0.013487 0.061243
v 0.004202 -0.013364 0.056323
v -0.038844 0.014329 0.061340
v 0.004136 0.014452 0.056420
v -0.074130 0.014157 0.087018
v -0.108317 0.014000 0.108557
v -0.079637 0.014181 0.075680
v 0.004136 0.014452 0.056420
v -0.036006 0.014295 0.073612
v -0.038844 0.014329 0.061340
v -0.038844 0.014329 0.061340
v -0.074130 0.014157 0.087018
v -0.079637 0.014181 0.075680
v 0.004167 0.014411 0.069011
v 0.004136 0.014452 0.056420
v -0.036006 0.014295 0.073612
v 0.047208 -0.013274 0.061071
v 0.004202 -0.013364 0.056323
v 0.004136 0.014452 0.056420
v 0.167117 0.014473 0.170715
v 0.145520 0.014534 0.136584
v 0.145585 -0.013282 0.136487
v 0.167183 -0.013343 0.170620
v 0.116918 -0.013258 0.108008
v 0.116854 0.014558 0.108104
v 0.082624 -0.013271 0.086609
v 0.044429 -0.013322 0.073356
v 0.082559 0.014545 0.086704
v 0.044362 0.014494 0.073450
v 0.004167 0.014411 0.069011
v 0.004232 -0.013406 0.068916
v -0.035939 -0.013520 0.073516
v -0.074066 -0.013659 0.086923
v -0.036006 0.014295 0.073612
v -0.074130 0.014157 0.087018
v -0.108252 -0.013815 0.108462
v -0.108317 0.014000 0.108557
v -0.136772 -0.013981 0.137057
v -0.136837 0.013834 0.137152
v -0.158196 -0.014149 0.171275
v -0.158261 0.013668 0.171370
v -0.171455 -0.014308 0.209387
v -0.171522 0.013508 0.209483
v -0.175947 0.013363 0.249597
v -0.175881 -0.014453 0.249502
v 0.178477 0.014519 0.165226
v 0.145520 0.014534 0.136584
v 0.192867 0.014420 0.205947
v 0.155363 0.014585 0.128712
v 0.167117 0.014473 0.170715
v 0.180572 0.014379 0.208777
v 0.185201 0.014257 0.248872
v 0.197817 0.014288 0.248847
v 0.116854 0.014558 0.108104
v 0.124699 0.014610 0.098244
v 0.082559 0.014545 0.086704
v 0.088007 0.014596 0.075343
v 0.047142 0.014542 0.061167
v 0.044362 0.014494 0.073450
v 0.004167 0.014411 0.069011
v 0.004136 0.014452 0.056420
v 0.185267 -0.013559 0.248778
v 0.180637 -0.013437 0.208681
v 0.197883 -0.013528 0.248753
v 0.192930 -0.013397 0.205851
v 0.178542 -0.013296 0.165129
v 0.155428 -0.013231 0.128614
v 0.167183 -0.013343 0.170620
v 0.145585 -0.013282 0.136487
v 0.124762 -0.013206 0.098148
v 0.116918 -0.013258 0.108008
v 0.082624 -0.013271 0.086609
v 0.088072 -0.013220 0.075247
v 0.047208 -0.013274 0.061071
v 0.044429 -0.013322 0.073356
v 0.004202 -0.013364 0.056323
v -0.038779 -0.013487 0.061243
v 0.004232 -0.013406 0.068916
v -0.035939 -0.013520 0.073516
v -0.079573 -0.013635 0.075585
v -0.074066 -0.013659 0.086923
v -0.108252 -0.013815 0.108462
v -0.116147 -0.013803 0.098634
v -0.146656 -0.013979 0.129223
v -0.169582 -0.014158 0.165829
v -0.136772 -0.013981 0.137057
v -0.158196 -0.014149 0.171275
v -0.171455 -0.014308 0.209387
v -0.183766 -0.014330 0.206609
v -0.175881 -0.014453 0.249502
v -0.188498 -0.014484 0.249527
v 0.180572 0.014379 0.208777
v 0.167117 0.014473 0.170715
v 0.167183 -0.013343 0.170620
v 0.192867 0.014420 0.205947
v 0.197817 0.014288 0.248847
v 0.192930 -0.013397 0.205851
v 0.178477 0.014519 0.165226
v 0.155363 0.014585 0.128712
v 0.178542 -0.013296 0.165129
v 0.155428 -0.013231 0.128614
v 0.124699 0.014610 0.098244
v 0.124762 -0.013206 0.098148
v 0.088072 -0.013220 0.075247
v 0.088007 0.014596 0.075343
v 0.047142 0.014542 0.061167
v 0.004136 0.014452 0.056420
v 0.047208 -0.013274 0.061071
v 0.197883 -0.013528 0.248753
v 0.185201 0.014257 0.248872
v 0.180572 0.014379 0.208777
v 0.185267 -0.013559 0.248778
v 0.180637 -0.013437 0.208681
v 0.167183 -0.013343 0.170620
v 0.202978 -0.004053 0.222708
v 0.158886 0.000375 0.221580
v 0.202993 -0.007382 0.226061
v 0.158901 -0.004163 0.222800
v 0.202964 0.000485 0.221492
v 0.158917 -0.007492 0.226150
v 0.158931 -0.008723 0.230740
v 0.203008 -0.008613 0.230652
v 0.203015 -0.007413 0.235261
v 0.158940 -0.007522 0.235350
v 0.203017 -0.004106 0.238636
v 0.203011 0.000423 0.239884
v 0.158941 -0.004215 0.238725
v 0.158932 0.000314 0.239971
v 0.158920 0.004851 0.238756
v 0.202995 0.004960 0.238667
v 0.202979 0.008290 0.235316
v 0.202966 0.009520 0.230715
v 0.158903 0.008181 0.235404
v 0.158889 0.009410 0.230803
v 0.158880 0.008211 0.226202
v 0.202957 0.008320 0.226115
v 0.202955 0.005013 0.222739
v 0.202964 0.000485 0.221492
v 0.158881 0.004904 0.222829
v 0.158886 0.000375 0.221580
v -0.193779 0.008538 0.231511
v -0.193768 0.007307 0.236111
v -0.193752 0.003977 0.239464
v -0.193728 -0.005089 0.239432
v -0.193737 -0.000559 0.240678
v -0.193791 0.007338 0.226913
v -0.193738 -0.009595 0.231448
v -0.193753 -0.008365 0.226859
v -0.193792 0.004031 0.223538
v -0.193729 -0.008395 0.236058
v -0.193784 -0.000498 0.222290
v -0.193768 -0.005036 0.223507
v -0.193792 0.004031 0.223538
v -0.193784 -0.000498 0.222290
v -0.193791 0.007338 0.226913
v -0.149715 0.004140 0.223448
v -0.149707 -0.000389 0.222201
v -0.149716 0.007447 0.226823
v -0.149705 0.008646 0.231422
v -0.193779 0.008538 0.231511
v -0.193768 0.007307 0.236111
v -0.149693 0.007416 0.236024
v -0.193752 0.003977 0.239464
v -0.193737 -0.000559 0.240678
v -0.149675 0.004087 0.239375
v -0.149660 -0.000451 0.240590
v -0.149654 -0.004980 0.239344
v -0.193728 -0.005089 0.239432
v -0.193729 -0.008395 0.236058
v -0.193738 -0.009595 0.231448
v -0.149654 -0.008286 0.235969
v -0.149663 -0.009487 0.231362
v -0.149677 -0.008255 0.226770
v -0.193753 -0.008365 0.226859
v -0.193768 -0.005036 0.223507
v -0.149694 -0.004926 0.223417
v -0.193784 -0.000498 0.222290
v -0.149707 -0.000389 0.222201
vn 1.0000 -0.0052 -0.0033
vn 1.0000 0.0022 -0.0024
vn 1.0000 0.0023 -0.0023
vn 1.0000 0.0024 -0.0026
vn 1.0000 0.0025 -0.0026
vn 1.0000 -0.0035 0.0004
vn 1.0000 0.0026 -0.0028
vn 1.0000 0.0019 -0.0022
vn 1.0000 0.0013 -0.0018
vn 1.0000 0.0025 -0.0030
vn 1.0000 0.0017 0.0003
vn -0.0025 1.0000 0.0033
vn -0.0031 1.0000 0.0072
vn -0.0025 1.0000 0.0034
vn -0.0064 1.0000 0.0042
vn 0.0019 -0.0034 1.0000
vn 0.0020 -0.0034 1.0000
vn 0.8207 -0.5713 -0.0041
vn 0.4244 -0.9055 -0.0041
vn 0.5785 -0.8156 -0.0041
vn 0.9089 -0.4170 -0.0037
vn 0.0916 -0.9958 -0.0035
vn -0.0868 -0.9962 -0.0031
vn -0.4198 -0.9076 -0.0019
vn -0.5744 -0.8186 -0.0013
vn -0.9069 -0.4214 0.0009
vn -0.8180 -0.5752 0.0002
vn -0.9959 -0.0907 0.0022
vn -0.9963 0.0857 0.0028
vn -0.9090 0.4167 0.0037
vn -0.8209 0.5711 0.0040
vn -0.4246 0.9054 0.0042
vn -0.5786 0.8156 0.0041
vn -0.0917 0.9958 0.0035
vn 0.0868 0.9962 0.0031
vn 0.4199 0.9076 0.0019
vn 0.5746 0.8184 0.0013
vn 0.8179 0.5753 -0.0002
vn 0.9068 0.4216 -0.0009
vn 0.9667 0.2560 -0.0016
vn 0.9663 0.2573 -0.0016
vn 0.9657 -0.2598 -0.0033
vn 0.9087 -0.4174 -0.0038
vn 0.9656 -0.2599 -0.0033
vn 0.8207 -0.5713 -0.0040
vn 0.9087 -0.4174 -0.0037
vn -0.0028 1.0000 0.0042
vn -0.0024 1.0000 0.0033
vn -0.0024 1.0000 0.0034
vn -0.7593 0.0004 -0.6508
vn -0.5951 0.0014 -0.8036
vn -0.6536 0.0011 -0.7568
vn -0.4684 0.0019 -0.8835
vn -0.8056 0.0001 -0.5924
vn -0.8853 -0.0005 -0.4651
vn -0.9663 -0.0014 -0.2574
vn -0.9171 -0.0008 -0.3986
vn -0.9828 -0.0017 -0.1845
vn -0.9940 -0.0019 -0.1096
vn -0.4009 0.0022 -0.9161
vn -0.2604 0.0027 -0.9655
vn -0.1876 0.0030 -0.9822
vn -0.0392 0.0033 -0.9992
vn 0.0358 0.0035 -0.9994
vn -0.0397 0.0033 -0.9992
vn 0.0346 0.0035 -0.9994
vn 0.1833 0.0038 -0.9831
vn -0.8826 -0.0037 0.4701
vn -0.7554 -0.0039 0.6553
vn -0.8024 -0.0039 0.5968
vn -0.9155 -0.0035 0.4023
vn -0.6491 -0.0040 0.7607
vn -0.5918 -0.0041 0.8061
vn -0.4652 -0.0041 0.8852
vn -0.3972 -0.0040 0.9177
vn -0.2578 -0.0039 0.9662
vn -0.1825 -0.0038 0.9832
vn 0.0393 -0.0033 0.9992
vn -0.0348 -0.0035 0.9994
vn 0.1871 -0.0029 0.9823
vn 0.2611 -0.0027 0.9653
vn 0.4018 -0.0022 0.9157
vn 0.4694 -0.0019 0.8830
vn 0.5943 -0.0013 0.8042
vn 0.6529 -0.0010 0.7574
vn 0.7587 -0.0005 0.6514
vn 0.8052 -0.0001 0.5930
vn 0.8848 0.0004 0.4660
vn 0.9171 0.0008 0.3987
vn 0.9665 0.0014 0.2568
vn 0.9828 0.0017 0.1846
vn 0.9940 0.0020 0.1097
vn 0.0025 -1.0000 -0.0033
vn 0.0028 -1.0000 -0.0041
vn 0.0030 -1.0000 -0.0061
vn 0.0027 -1.0000 -0.0040
vn 0.0025 -1.0000 -0.0034
vn 0.0024 -1.0000 -0.0034
vn -0.9743 -0.0031 0.2254
vn -0.8825 -0.0036 0.4703
vn -0.9150 -0.0035 0.4034
vn 0.9743 0.0030 -0.2253
vn 0.9934 0.0027 -0.1147
vn 0.9158 0.0035 -0.4016
vn 0.8032 0.0040 -0.5958
vn 0.8827 0.0037 -0.4700
vn 0.7552 0.0040 -0.6555
vn 0.6504 0.0041 -0.7596
vn 0.5910 0.0041 -0.8066
vn 0.3964 0.0041 -0.9181
vn 0.4642 0.0041 -0.8857
vn 0.2563 0.0039 -0.9666
vn 0.1835 0.0038 -0.9830
vn -0.9934 -0.0027 0.1147
vn -0.9743 -0.0030 0.2254
vn -0.0013 -0.2587 -0.9660
vn -0.0007 -0.4160 -0.9094
vn -0.0013 -0.2528 -0.9675
vn -0.0003 -0.5701 -0.8215
vn 0.0009 -0.8146 -0.5801
vn 0.0014 -0.9048 -0.4259
vn 0.0023 -0.9956 -0.0932
vn 0.0027 -0.9963 0.0858
vn 0.0032 -0.9077 0.4197
vn 0.0031 -0.5756 0.8177
vn 0.0032 -0.8184 0.5746
vn 0.0022 -0.0919 0.9958
vn 0.0029 -0.4220 0.9066
vn 0.0017 0.0852 0.9964
vn 0.0008 0.4159 0.9094
vn 0.0002 0.5700 0.8216
vn -0.0009 0.8146 0.5800
vn -0.0023 0.9957 0.0925
vn -0.0015 0.9049 0.4256
vn -0.0026 0.9963 -0.0862
vn -0.0031 0.9075 -0.4200
vn -0.0032 0.8183 -0.5748
vn -0.0031 0.5759 -0.8175
vn -0.0026 0.2654 -0.9641
vn -0.0029 0.4222 -0.9065
vn -1.0000 -0.0044 -0.0007
vn -1.0000 -0.0029 0.0017
vn -1.0000 -0.0028 0.0018
vn -1.0000 -0.0076 -0.0029
vn -1.0000 -0.0002 0.0041
vn -1.0000 -0.0022 0.0028
vn -1.0000 -0.0024 0.0026
vn -1.0000 -0.0025 0.0025
vn -1.0000 -0.0025 0.0026
vn -1.0000 -0.0024 0.0070
vn -1.0000 -0.0025 0.0006
vn -0.0026 0.2590 -0.9659
vn -0.0025 0.2651 -0.9642
vn -0.0029 0.4223 -0.9065
vn -0.0030 0.5753 -0.8179
vn -0.0032 0.8186 -0.5744
vn -0.0031 0.9076 -0.4197
vn -0.0027 0.9963 -0.0863
vn -0.0023 0.9957 0.0927
vn -0.0014 0.9049 0.4257
vn -0.0009 0.8144 0.5803
vn 0.0002 0.5702 0.8215
vn 0.0007 0.4160 0.9094
vn 0.0018 0.0847 0.9964
vn 0.0028 -0.4220 0.9066
vn 0.0031 -0.5759 0.8175
vn 0.0032 -0.8185 0.5745
vn 0.0032 -0.9077 0.4196
vn 0.0014 -0.9046 -0.4263
vn 0.0010 -0.8146 -0.5801
vn -0.0002 -0.5703 -0.8214
vn -0.0009 -0.4160 -0.9094
vn -0.0013 -0.2590 -0.9659
vn -0.0013 -0.2499 -0.9683
vt 0.663574 0.577148
vt 0.664551 0.572754
vt 0.666016 0.573242
vt 0.663574 0.573242
vt 0.666504 0.574219
vt 0.664551 0.577148
vt 0.666992 0.575195
vt 0.666504 0.576172
vt 0.666016 0.577148
vt 0.663086 0.576172
vt 0.663086 0.574219
vt 0.662598 0.575195
vt 0.655762 0.385986
vt 0.655762 0.393066
vt 0.659180 0.385986
vt 0.659180 0.393066
vt 0.659668 0.580078
vt 0.659668 0.578613
vt 0.635254 0.578613
vt 0.635254 0.580566
vt 0.635254 0.577148
vt 0.659668 0.576660
vt 0.635254 0.575195
vt 0.659668 0.575195
vt 0.659668 0.573730
vt 0.635254 0.573730
vt 0.635254 0.571777
vt 0.659668 0.571777
vt 0.635254 0.570312
vt 0.659668 0.570312
vt 0.659668 0.568359
vt 0.635254 0.568848
vt 0.635254 0.566895
vt 0.659668 0.566895
vt 0.635254 0.565430
vt 0.659668 0.564941
vt 0.635254 0.563477
vt 0.659668 0.563477
vt 0.635254 0.562012
vt 0.659180 0.561523
vt 0.635254 0.582031
vt 0.659668 0.582031
vt 0.698730 0.373291
vt 0.697266 0.377930
vt 0.698730 0.378418
vt 0.700195 0.373779
vt 0.700684 0.368652
vt 0.699219 0.368652
vt 0.678711 0.412354
vt 0.678711 0.417969
vt 0.682617 0.417969
vt 0.682617 0.423340
vt 0.682617 0.412354
vt 0.678711 0.406738
vt 0.678711 0.401367
vt 0.682617 0.406738
vt 0.682617 0.401367
vt 0.678711 0.395752
vt 0.682617 0.395752
vt 0.678711 0.423340
vt 0.682617 0.428955
vt 0.678711 0.428955
vt 0.682617 0.434570
vt 0.678711 0.434570
vt 0.682617 0.439941
vt 0.687500 0.461426
vt 0.687500 0.456055
vt 0.683105 0.456055
vt 0.683105 0.461426
vt 0.683105 0.450684
vt 0.687500 0.450684
vt 0.683105 0.445312
vt 0.687500 0.445312
vt 0.683105 0.439941
vt 0.687500 0.439941
vt 0.687500 0.434570
vt 0.683105 0.434570
vt 0.683105 0.429199
vt 0.687500 0.429199
vt 0.683105 0.423828
vt 0.687500 0.423828
vt 0.683105 0.418457
vt 0.687500 0.418457
vt 0.683105 0.413086
vt 0.687500 0.413086
vt 0.683105 0.407715
vt 0.687500 0.407715
vt 0.683105 0.402344
vt 0.687500 0.402344
vt 0.683105 0.396973
vt 0.687500 0.396973
vt 0.662109 0.381836
vt 0.659668 0.377930
vt 0.658691 0.378418
vt 0.661133 0.382812
vt 0.656738 0.373779
vt 0.658203 0.373291
vt 0.657715 0.368652
vt 0.656250 0.368652
vt 0.665527 0.385254
vt 0.664551 0.386475
vt 0.668945 0.389160
vt 0.669434 0.387695
vt 0.673828 0.390869
vt 0.673828 0.389404
vt 0.678711 0.389893
vt 0.678711 0.391357
vt 0.683594 0.390869
vt 0.683105 0.389404
vt 0.687500 0.387695
vt 0.688477 0.389160
vt 0.691406 0.385254
vt 0.692383 0.386475
vt 0.695801 0.382812
vt 0.694824 0.381836
vt 0.687500 0.466553
vt 0.678711 0.467773
vt 0.678711 0.473389
vt 0.682617 0.467773
vt 0.678711 0.462158
vt 0.678711 0.456787
vt 0.682617 0.462158
vt 0.682617 0.456543
vt 0.678711 0.451172
vt 0.682617 0.451172
vt 0.682617 0.445557
vt 0.678711 0.445557
vt 0.678711 0.439941
vt 0.682617 0.473389
vt 0.683105 0.472168
vt 0.687500 0.471924
vt 0.683105 0.466797
vt 0.667480 0.569824
vt 0.667480 0.569336
vt 0.662109 0.569824
vt 0.662109 0.569336
vt 0.667480 0.568848
vt 0.662109 0.568848
vt 0.667480 0.568359
vt 0.662109 0.568359
vt 0.667480 0.567383
vt 0.667480 0.566895
vt 0.662109 0.567383
vt 0.667480 0.566406
vt 0.662109 0.566895
vt 0.662109 0.566406
vt 0.667480 0.565918
vt 0.662109 0.565918
vt 0.667480 0.564941
vt 0.667480 0.564453
vt 0.662109 0.564941
vt 0.662109 0.564453
vt 0.667480 0.563965
vt 0.662109 0.563965
vt 0.667480 0.563477
vt 0.667480 0.562500
vt 0.662109 0.563477
vt 0.662109 0.562500
s 1
f 2/1/1 1/2/2 4/3/3
f 2/1/1 3/4/4 1/2/2
f 2/1/1 4/3/3 5/5/5
f 6/6/6 2/1/1 5/5/5
f 6/6/6 5/5/5 7/7/7
f 6/6/6 7/7/7 8/8/8
f 6/6/6 8/8/8 9/9/9
f 11/10/3 10/11/10 3/4/4
f 2/1/1 11/10/3 3/4/4
f 11/10/3 12/12/11 10/11/10
f 15/6/12 14/8/12 13/9/12
f 18/6/13 16/5/14 17/7/14
f 20/6/14 19/1/14 21/5/15
f 24/1/12 22/10/12 23/4/12
f 25/13/16 27/14/17 26/15/17
f 27/14/17 28/16/17 26/15/17
f 29/17/18 30/18/19 31/19/20
f 32/20/21 29/17/18 31/19/20
f 31/19/20 30/18/19 33/21/22
f 33/21/22 35/22/23 34/23/24
f 30/18/19 35/22/23 33/21/22
f 35/22/23 36/24/25 34/23/24
f 36/24/25 37/25/26 38/26/27
f 34/23/24 36/24/25 38/26/27
f 38/26/27 37/25/26 39/27/28
f 39/27/28 41/28/29 40/29/30
f 37/25/26 41/28/29 39/27/28
f 41/28/29 42/30/31 40/29/30
f 42/30/31 43/31/32 44/32/33
f 40/29/30 42/30/31 44/32/33
f 44/32/33 43/31/32 45/33/34
f 45/33/34 46/34/35 47/35/36
f 43/31/32 46/34/35 45/33/34
f 47/35/36 48/36/37 49/37/38
f 46/34/35 48/36/37 47/35/36
f 48/36/37 50/38/39 49/37/38
f 49/37/38 50/38/39 51/39/40
f 50/38/39 52/40/41 51/39/40
f 53/41/42 54/42/42 55/20/43
f 56/42/44 58/17/45 57/20/46
f 61/14/17 59/16/17 60/15/17
f 62/13/17 61/14/17 60/15/17
f 65/43/12 64/44/12 63/45/12
f 66/46/47 65/43/12 63/45/12
f 66/46/47 68/47/48 67/48/48
f 65/43/12 66/46/47 67/48/48
f 69/1/49 71/3/49 70/5/49
f 74/6/48 72/7/48 73/8/48
f 79/49/50 76/50/51 75/51/52
f 75/51/52 76/50/51 77/52/53
f 78/53/54 79/49/50 75/51/52
f 80/54/55 79/49/50 78/53/54
f 82/55/56 80/54/55 81/56/57
f 81/56/57 80/54/55 78/53/54
f 83/57/58 82/55/56 81/56/57
f 82/55/56 83/57/58 84/58/59
f 83/57/58 85/59/59 84/58/59
f 76/50/51 86/60/60 77/52/53
f 77/52/53 86/60/60 87/61/61
f 86/60/60 89/62/62 87/61/61
f 87/61/61 89/62/62 88/63/63
f 89/62/62 90/64/64 88/63/63
f 92/1/12 91/2/12 93/3/12
f 96/10/12 95/11/12 94/4/12
f 99/1/12 98/4/12 97/2/12
f 102/10/12 100/12/12 101/11/12
f 104/63/65 105/64/66 103/65/67
f 106/66/68 107/67/69 108/68/70
f 109/69/71 106/66/68 108/68/70
f 108/68/70 107/67/69 110/70/72
f 107/67/69 111/71/73 110/70/72
f 110/70/72 111/71/73 112/72/74
f 111/71/73 114/73/75 112/72/74
f 112/72/74 114/73/75 113/74/76
f 114/73/75 115/75/77 113/74/76
f 115/75/77 116/76/78 117/77/79
f 113/74/76 115/75/77 117/77/79
f 117/77/79 116/76/78 118/78/80
f 118/78/80 120/79/81 119/80/82
f 116/76/78 120/79/81 118/78/80
f 120/79/81 121/81/83 119/80/82
f 119/80/82 121/81/83 122/82/84
f 121/81/83 123/83/85 122/82/84
f 122/82/84 123/83/85 124/84/86
f 123/83/85 125/85/87 124/84/86
f 124/84/86 125/85/87 126/86/88
f 125/85/87 127/87/89 126/86/88
f 126/86/88 127/87/89 128/88/90
f 127/87/89 129/89/91 128/88/90
f 128/88/90 129/89/91 131/90/92
f 129/89/91 130/91/92 131/90/92
f 133/92/14 136/93/12 132/94/12
f 135/95/14 133/92/14 132/94/12
f 132/94/12 136/93/12 134/96/12
f 136/93/12 137/97/12 134/96/12
f 137/97/12 138/98/12 134/96/12
f 138/98/12 139/99/12 134/96/12
f 140/100/12 133/92/14 135/95/14
f 141/101/12 140/100/12 135/95/14
f 143/102/12 142/103/12 141/101/12
f 142/103/12 140/100/12 141/101/12
f 144/104/12 145/105/12 143/102/12
f 145/105/12 142/103/12 143/102/12
f 146/106/12 145/105/12 144/104/12
f 147/107/12 146/106/12 144/104/12
f 149/97/93 151/96/93 148/98/93
f 151/96/93 150/99/93 148/98/93
f 151/96/93 149/97/93 152/94/93
f 149/97/93 154/93/93 152/94/93
f 152/94/93 154/93/93 153/95/93
f 154/93/93 155/92/93 153/95/93
f 153/95/93 155/92/93 156/101/93
f 155/92/93 157/100/93 156/101/93
f 156/101/93 157/100/93 159/102/93
f 157/100/93 158/103/93 159/102/93
f 159/102/93 158/103/93 160/104/93
f 158/103/93 161/105/93 160/104/93
f 160/104/93 161/105/93 162/107/93
f 161/105/93 164/106/93 162/107/93
f 162/107/93 164/106/93 163/108/94
f 164/106/93 165/109/93 163/108/94
f 165/109/93 167/110/95 166/111/93
f 163/108/94 165/109/93 166/111/93
f 167/110/95 168/112/96 169/113/93
f 166/111/93 167/110/95 169/113/93
f 169/113/93 168/112/96 170/114/93
f 168/112/96 172/115/97 170/114/93
f 170/114/93 172/115/97 171/45/98
f 172/115/97 173/44/98 171/45/98
f 173/44/98 174/43/93 175/46/93
f 171/45/98 173/44/98 175/46/93
f 174/43/93 176/48/93 175/46/93
f 176/48/93 177/47/93 175/46/93
f 178/116/99 179/66/100 180/69/101
f 181/117/102 182/118/103 183/119/102
f 184/120/104 181/117/102 183/119/102
f 185/121/105 184/120/104 186/122/106
f 186/122/106 184/120/104 183/119/102
f 187/123/107 185/121/105 186/122/106
f 188/124/108 185/121/105 187/123/107
f 189/125/109 188/124/108 187/123/107
f 190/126/110 191/127/111 189/125/109
f 191/127/111 188/124/108 189/125/109
f 192/128/112 191/127/111 190/126/110
f 193/64/66 192/128/112 194/65/113
f 194/65/113 192/128/112 190/126/110
f 182/118/103 195/129/103 183/119/102
f 198/130/114 196/131/114 197/116/115
f 199/132/99 198/130/114 197/116/115
f 199/132/99 197/116/115 200/69/101
f 205/133/116 201/134/117 202/135/118
f 201/134/117 204/136/119 202/135/118
f 201/134/117 203/137/120 204/136/119
f 203/137/120 206/138/121 204/136/119
f 208/139/122 207/140/123 206/138/121
f 203/137/120 208/139/122 206/138/121
f 208/139/122 209/141/124 207/140/123
f 209/141/124 211/142/125 210/143/126
f 209/141/124 210/143/126 207/140/123
f 211/142/125 212/144/127 213/145/128
f 211/142/125 213/145/128 210/143/126
f 212/144/127 214/146/129 213/145/128
f 216/147/130 215/148/131 214/146/129
f 212/144/127 216/147/130 214/146/129
f 216/147/130 217/149/132 215/148/131
f 217/149/132 218/150/133 219/151/134
f 217/149/132 219/151/134 215/148/131
f 218/150/133 220/152/135 219/151/134
f 222/153/136 221/154/137 220/152/135
f 218/150/133 222/153/136 220/152/135
f 222/153/136 223/155/138 221/154/137
f 223/155/138 224/156/139 225/157/140
f 223/155/138 225/157/140 221/154/137
f 224/156/139 226/158/139 225/157/140
f 227/2/141 229/5/142 228/3/143
f 227/2/141 231/7/144 229/5/142
f 227/2/141 230/8/145 231/7/144
f 227/2/141 232/4/146 230/8/145
f 232/4/146 233/6/147 236/9/147
f 232/4/146 234/1/148 233/6/147
f 232/4/146 236/9/147 230/8/145
f 232/4/146 235/11/149 234/1/148
f 235/11/149 238/10/150 234/1/148
f 235/11/149 237/12/151 238/10/150
f 243/156/152 240/158/153 239/157/154
f 242/155/155 239/157/154 241/154/156
f 242/155/155 243/156/152 239/157/154
f 244/153/157 242/155/155 241/154/156
f 244/153/157 241/154/156 246/152/158
f 245/150/159 244/153/157 246/152/158
f 245/150/159 246/152/158 247/151/160
f 248/149/161 245/150/159 247/151/160
f 248/149/161 247/151/160 249/148/162
f 251/147/163 249/148/162 250/146/164
f 251/147/163 248/149/161 249/148/162
f 252/144/127 251/147/163 250/146/164
f 252/144/127 250/146/164 254/145/165
f 253/142/166 252/144/127 254/145/165
f 253/142/166 254/145/165 255/143/167
f 257/141/168 253/142/166 255/143/167
f 257/141/168 255/143/167 256/140/123
f 258/139/122 257/141/168 256/140/123
f 258/139/122 256/140/123 260/138/169
f 259/137/170 258/139/122 260/138/169
f 259/137/170 260/138/169 261/136/171
f 262/134/172 259/137/170 261/136/171
f 262/134/172 261/136/171 263/135/173
f 264/133/174 262/134/172 263/135/173
