# Blender 3.6.22
# www.blender.org
o pbr
v 1.348634 -4.981624 0.716857
v 1.387164 -4.989604 0.772780
v 1.419393 -4.935673 0.771611
v 1.365391 -4.952763 0.716132
v 1.370492 -4.939911 0.712495
v 1.426677 -4.916545 0.766742
v 1.373365 -4.928527 0.705364
v 1.425895 -4.898719 0.754868
v 1.420742 -4.889616 0.739574
v 1.411085 -4.880024 0.720766
v 1.366617 -4.923152 0.691960
v 1.338394 -4.864178 0.609119
v 1.310842 -4.909582 0.609940
v 1.355132 -5.043353 0.772688
v 1.331969 -5.010350 0.716708
v 1.322514 -5.022204 0.713318
v 1.339764 -5.061144 0.768187
v 1.312234 -5.031586 0.706395
v 1.323262 -5.075628 0.756637
v 1.308662 -5.080378 0.741482
v 1.295664 -5.084624 0.722812
v 1.303060 -5.033142 0.693060
v 1.212833 -5.068604 0.611163
v 1.240847 -5.022448 0.611069
v 1.177224 -4.943180 0.447502
v 1.210764 -4.951165 0.503447
v 1.210391 -4.889428 0.447595
v 1.229310 -4.922428 0.503574
v 1.239091 -4.910576 0.506964
v 1.225314 -4.871636 0.452095
v 1.248496 -4.901196 0.513887
v 1.242304 -4.857151 0.463645
v 1.256576 -4.852401 0.478801
v 1.271590 -4.848153 0.497470
v 1.259587 -4.899642 0.527222
v 1.143615 -4.997108 0.448672
v 1.193713 -4.980014 0.504151
v 1.188056 -4.992868 0.507787
v 1.135022 -5.016239 0.453541
v 1.184918 -5.004257 0.514918
v 1.132788 -5.034063 0.465414
v 1.137388 -5.043159 0.480709
v 1.144847 -5.052758 0.499516
v 1.192622 -5.009626 0.528322
v 1.169756 -5.259905 0.702224
v 1.198459 -5.264099 0.739689
v 1.196191 -5.219852 0.704162
v 1.029569 -5.183414 0.448850
v 1.068758 -5.127896 0.448295
v 1.276469 -5.173639 0.774232
v 1.211880 -5.245149 0.744178
v 1.224743 -5.232307 0.751066
v 1.236056 -5.229531 0.763902
v 1.245359 -5.231035 0.774443
v 1.543637 -4.594958 0.721730
v 1.475105 -4.743636 0.724090
v 1.572830 -4.602797 0.773296
v 1.482004 -4.809062 0.772742
v 1.429047 -4.733478 0.654174
v 1.407923 -4.791746 0.663483
v 1.394263 -4.782966 0.638088
v 1.388868 -4.766567 0.619596
v 1.389179 -4.745877 0.607173
v 1.396076 -4.725583 0.603478
v 1.473644 -4.637243 0.653211
v 1.432272 -4.647688 0.603573
v 1.479145 -4.613985 0.646869
v 1.435763 -4.634267 0.599947
v 1.479804 -4.596249 0.637092
v 1.433948 -4.627248 0.592895
v 1.477781 -4.586142 0.626519
v 1.467409 -4.580328 0.609880
v 1.396658 -4.615422 0.509000
v 1.409869 -4.563022 0.487531
v 1.386790 -4.615276 0.495908
v 1.395525 -4.565565 0.469230
v 1.380743 -4.576361 0.454502
v 1.378764 -4.623626 0.488137
v 1.363645 -4.595527 0.444222
v 1.304514 -4.717237 0.445439
v 1.340462 -4.697199 0.488000
v 1.340923 -4.707543 0.494213
v 1.292539 -4.741598 0.447427
v 1.290103 -4.753876 0.455618
v 1.343789 -4.712449 0.502350
v 1.294795 -4.763468 0.467501
v 1.300373 -4.768538 0.482018
v 1.328651 -4.774601 0.526545
v 1.355340 -4.716033 0.525959
v -1.408257 -4.847128 0.698261
v -1.443957 -4.855111 0.754184
v -1.419428 -4.909685 0.753250
v -1.393661 -4.876300 0.697662
v -1.387530 -4.888340 0.694080
v -1.406479 -4.927758 0.748462
v -1.376472 -4.897878 0.686994
v -1.387913 -4.942489 0.736660
v -1.373042 -4.947347 0.721396
v -1.357566 -4.951695 0.702619
v -1.365689 -4.899491 0.673605
v -1.280989 -4.935670 0.590971
v -1.310994 -4.888854 0.591591
v -1.469503 -4.800358 0.753856
v -1.421580 -4.817830 0.697986
v -1.424737 -4.804788 0.694542
v -1.475080 -4.780943 0.749275
v -1.425414 -4.793244 0.687573
v -1.474586 -4.762873 0.737654
v -1.469630 -4.753669 0.722467
v -1.460097 -4.743968 0.703768
v -1.418011 -4.787823 0.674223
v -1.391354 -4.728126 0.592119
v -1.370143 -4.774266 0.592226
v -1.246873 -4.808686 0.428906
v -1.279966 -4.816668 0.484851
v -1.215471 -4.863444 0.429235
v -1.265104 -4.845962 0.485104
v -1.258290 -4.859006 0.488549
v -1.205365 -4.882850 0.433816
v -1.256737 -4.870551 0.495517
v -1.201937 -4.900927 0.445436
v -1.207941 -4.910125 0.460623
v -1.213919 -4.919828 0.479322
v -1.261118 -4.875981 0.508867
v -1.273662 -4.754113 0.429840
v -1.295591 -4.787496 0.485428
v -1.302642 -4.775455 0.489011
v -1.286230 -4.736034 0.434629
v -1.311564 -4.765916 0.496096
v -1.300971 -4.721309 0.446431
v -1.313449 -4.716454 0.461694
v -1.330409 -4.712098 0.480472
v -1.321890 -4.764311 0.509485
v -1.528800 -4.559577 0.682397
v -1.553801 -4.566099 0.719868
v -1.512450 -4.600912 0.684512
v -1.371279 -4.564473 0.429201
v -1.343029 -4.620835 0.428889
v -1.530489 -4.668150 0.754829
v -1.547225 -4.586679 0.724442
v -1.544850 -4.601743 0.731392
v -1.547367 -4.608266 0.744248
v -1.552957 -4.609772 0.754788
v -1.182534 -5.242217 0.704834
v -1.276667 -5.091517 0.706544
v -1.217764 -5.249097 0.756399
v -1.343363 -5.038922 0.754938
v -1.231646 -5.081720 0.636627
v -1.269838 -5.025076 0.645688
v -1.247444 -5.026704 0.620314
v -1.224274 -5.038079 0.601884
v -1.204616 -5.055561 0.589543
v -1.189263 -5.075161 0.585935
v -1.164997 -5.179429 0.636087
v -1.140810 -5.154500 0.586371
v -1.144940 -5.201288 0.629844
v -1.132794 -5.167113 0.582803
v -1.126811 -5.216527 0.620138
v -1.126257 -5.172235 0.575777
v -1.113886 -5.223771 0.609603
v -1.100786 -5.224898 0.592979
v -1.074675 -5.160106 0.491881
v -1.029065 -5.207278 0.470629
v -1.059291 -5.156488 0.478781
v -1.014587 -5.199416 0.452305
v -1.006010 -5.184179 0.437521
v -1.059588 -5.145745 0.470970
v -1.010982 -5.161705 0.427150
v -1.095281 -5.038132 0.427834
v -1.110863 -5.070796 0.470510
v -1.122146 -5.062057 0.476681
v -1.113450 -5.013905 0.429717
v -1.128468 -5.003765 0.437858
v -1.130706 -5.059402 0.484802
v -1.142972 -4.997423 0.449707
v -1.155907 -4.996441 0.464209
v -1.182558 -5.003087 0.508739
v -1.144656 -5.062553 0.508410
vn 0.8569 -0.3699 -0.3590
vn 0.8569 -0.3698 -0.3590
vn 0.8529 -0.3755 -0.3626
vn 0.8529 -0.3792 -0.3589
vn 0.8488 -0.3885 -0.3587
vn 0.8570 -0.3698 -0.3590
vn 0.8582 -0.3631 -0.3627
vn 0.8609 -0.3605 -0.3590
vn 0.8647 -0.3511 -0.3591
vn 0.8556 -0.3766 -0.3552
vn 0.8609 -0.3641 -0.3554
vn 0.8560 -0.3722 -0.3587
vn 0.8569 -0.3699 -0.3589
vn -0.8720 -0.3328 -0.3591
vn -0.8731 -0.3259 -0.3627
vn -0.8756 -0.3233 -0.3590
vn -0.8791 -0.3137 -0.3589
vn -0.8720 -0.3328 -0.3590
vn -0.8682 -0.3386 -0.3628
vn -0.8683 -0.3422 -0.3591
vn -0.8645 -0.3517 -0.3591
vn -0.8719 -0.3329 -0.3591
vn -0.8757 -0.3270 -0.3553
vn -0.8719 -0.3328 -0.3591
vn -0.8708 -0.3396 -0.3554
vn -0.8719 -0.3328 -0.3592
vt 3.025030 -0.336555
vt 3.020125 -0.295864
vt 2.985927 -0.334856
vt 2.999201 -0.294882
vt 2.989936 -0.292041
vt 2.972128 -0.331022
vt 2.981789 -0.286689
vt 2.959385 -0.322127
vt 2.953025 -0.310889
vt 2.946363 -0.297095
vt 2.978103 -0.276881
vt 2.936632 -0.215857
vt 2.969554 -0.217169
vt 3.064020 -0.337337
vt 3.040965 -0.296209
vt 3.049617 -0.293938
vt 3.076997 -0.334354
vt 3.056531 -0.289064
vt 3.087686 -0.326205
vt 3.091371 -0.315286
vt 3.094747 -0.301810
vt 3.057870 -0.279415
vt 3.084886 -0.220568
vt 3.051408 -0.219771
vt 3.001400 -0.140577
vt 2.996491 -0.099869
vt 2.957498 -0.099088
vt 2.980552 -0.140216
vt 2.971902 -0.142488
vt 2.944522 -0.102071
vt 2.964989 -0.147361
vt 2.933832 -0.110221
vt 2.930146 -0.121140
vt 2.926771 -0.134615
vt 2.963650 -0.157010
vt 3.035591 -0.101570
vt 3.022316 -0.141543
vt 3.031584 -0.144384
vt 3.049391 -0.105404
vt 3.039731 -0.149737
vt 3.062134 -0.114298
vt 3.068491 -0.125536
vt 3.075155 -0.139330
vt 3.043414 -0.159545
vt 3.224668 -0.316886
vt 3.222217 -0.289644
vt 3.193133 -0.290417
vt 3.170732 -0.104641
vt 3.130470 -0.103362
vt 3.158503 -0.340515
vt 3.210852 -0.319843
vt 3.201427 -0.324637
vt 3.199211 -0.333905
vt 3.200134 -0.341575
vt 2.847376 -0.297352
vt 2.739565 -0.293292
vt 2.744436 -0.330822
vt 2.894066 -0.333677
vt 2.841112 -0.246475
vt 2.883232 -0.254148
vt 2.877263 -0.235588
vt 2.865660 -0.221916
vt 2.850848 -0.212577
vt 2.836185 -0.209577
vt 2.771318 -0.244257
vt 2.779679 -0.208415
vt 2.754547 -0.239290
vt 2.770003 -0.205573
vt 2.741837 -0.231918
vt 2.765020 -0.200347
vt 2.734672 -0.224088
vt 2.730718 -0.211926
vt 2.757768 -0.139303
vt 2.720096 -0.122903
vt 2.757868 -0.129804
vt 2.722231 -0.109668
vt 2.730294 -0.099154
vt 2.764049 -0.124299
vt 2.744359 -0.092000
vt 2.832626 -0.094805
vt 2.817420 -0.125362
vt 2.824824 -0.130032
vt 2.850267 -0.096632
vt 2.859043 -0.102767
vt 2.828255 -0.136012
vt 2.865814 -0.111539
vt 2.869261 -0.122149
vt 2.872958 -0.154545
vt 2.830480 -0.153194
vt 2.927764 -0.320943
vt 2.922857 -0.280251
vt 2.967366 -0.321127
vt 2.944026 -0.280277
vt 2.952816 -0.277868
vt 2.980551 -0.317939
vt 2.959849 -0.272879
vt 2.991424 -0.309610
vt 2.995186 -0.298615
vt 2.998640 -0.285063
vt 2.961228 -0.263192
vt 2.988777 -0.203822
vt 2.954808 -0.203533
vt 2.888052 -0.319840
vt 2.901609 -0.279588
vt 2.892201 -0.276884
vt 2.874041 -0.316210
vt 2.883938 -0.271647
vt 2.861117 -0.307495
vt 2.854680 -0.296334
vt 2.847938 -0.282616
vt 2.880215 -0.261877
vt 2.838208 -0.201377
vt 2.871677 -0.202183
vt 2.904132 -0.124964
vt 2.899224 -0.084256
vt 2.938938 -0.085359
vt 2.925377 -0.125611
vt 2.934783 -0.128315
vt 2.952944 -0.088989
vt 2.943048 -0.133552
vt 2.965873 -0.097704
vt 2.972306 -0.108865
vt 2.979049 -0.122582
vt 2.946775 -0.143322
vt 2.859623 -0.084072
vt 2.882960 -0.124922
vt 2.874168 -0.127331
vt 2.846433 -0.087260
vt 2.867138 -0.132320
vt 2.835566 -0.095588
vt 2.831802 -0.106584
vt 2.828346 -0.120136
vt 2.865762 -0.142007
vt 2.718658 -0.291486
vt 2.714521 -0.264202
vt 2.744470 -0.266389
vt 2.722070 -0.080614
vt 2.762961 -0.081278
vt 2.792134 -0.318458
vt 2.733516 -0.295129
vt 2.744332 -0.300408
vt 2.748862 -0.309837
vt 2.749787 -0.317506
vt 3.100003 -0.290118
vt 3.209345 -0.291258
vt 3.213522 -0.328771
vt 3.061088 -0.324392
vt 3.094000 -0.239247
vt 3.052768 -0.244924
vt 3.054350 -0.226544
vt 3.062890 -0.213355
vt 3.075768 -0.204679
vt 3.090044 -0.202372
vt 3.164886 -0.240398
vt 3.147587 -0.203941
vt 3.180841 -0.236214
vt 3.156793 -0.201551
vt 3.192048 -0.229414
vt 3.160619 -0.196536
vt 3.197469 -0.221886
vt 3.198548 -0.209845
vt 3.153148 -0.135487
vt 3.187700 -0.120816
vt 3.150728 -0.125927
vt 3.182286 -0.107400
vt 3.171468 -0.096435
vt 3.143060 -0.120091
vt 3.155329 -0.088557
vt 3.065680 -0.087102
vt 3.088699 -0.118574
vt 3.082261 -0.122912
vt 3.048076 -0.088085
vt 3.040591 -0.093831
vt 3.080207 -0.128762
vt 3.035803 -0.102325
vt 3.034862 -0.112830
vt 3.038980 -0.145236
vt 3.082121 -0.145936
s 1
f 2/1/1 1/2/1 3/3/1
f 4/4/1 3/3/1 1/2/1
f 4/4/1 5/5/1 3/3/1
f 6/6/1 3/3/1 5/5/1
f 5/5/1 7/7/1 6/6/1
f 8/8/2 6/6/1 7/7/1
f 9/9/2 8/8/2 7/7/1
f 7/7/1 10/10/1 9/9/2
f 7/7/1 11/11/3 10/10/1
f 12/12/4 10/10/1 11/11/3
f 11/11/3 13/13/5 12/12/4
f 1/2/1 2/1/1 14/14/1
f 14/14/1 15/15/1 1/2/1
f 16/16/6 15/15/1 14/14/1
f 14/14/1 17/17/1 16/16/6
f 18/18/1 16/16/6 17/17/1
f 17/17/1 19/19/1 18/18/1
f 19/19/1 20/20/1 18/18/1
f 21/21/1 18/18/1 20/20/1
f 22/22/7 18/18/1 21/21/1
f 21/21/1 23/23/8 22/22/7
f 24/24/9 22/22/7 23/23/8
f 26/25/1 25/26/2 27/27/1
f 27/27/1 28/28/2 26/25/1
f 29/29/1 28/28/2 27/27/1
f 27/27/1 30/30/1 29/29/1
f 31/31/1 29/29/1 30/30/1
f 30/30/1 32/32/2 31/31/1
f 32/32/2 33/33/2 31/31/1
f 34/34/1 31/31/1 33/33/2
f 35/35/10 31/31/1 34/34/1
f 34/34/1 12/12/4 35/35/10
f 13/13/5 35/35/10 12/12/4
f 25/26/2 26/25/1 36/36/1
f 37/37/1 36/36/1 26/25/1
f 37/37/1 38/38/2 36/36/1
f 39/39/2 36/36/1 38/38/2
f 38/38/2 40/40/2 39/39/2
f 41/41/1 39/39/2 40/40/2
f 42/42/1 41/41/1 40/40/2
f 40/40/2 43/43/2 42/42/1
f 40/40/2 44/44/11 43/43/2
f 23/23/8 43/43/2 44/44/11
f 44/44/11 24/24/9 23/23/8
f 46/45/1 45/46/1 47/47/1
f 47/47/1 48/48/1 49/49/2
f 49/49/2 50/50/2 47/47/1
f 51/51/1 46/45/1 47/47/1
f 52/52/1 51/51/1 47/47/1
f 52/52/1 47/47/1 50/50/2
f 53/53/1 52/52/1 50/50/2
f 54/54/1 53/53/1 50/50/2
f 56/55/1 55/56/1 57/57/1
f 57/57/1 58/58/1 56/55/1
f 59/59/12 56/55/1 58/58/1
f 58/58/1 60/60/2 59/59/12
f 60/60/2 61/61/1 59/59/12
f 61/61/1 62/62/6 59/59/12
f 62/62/6 63/63/1 59/59/12
f 63/63/1 64/64/1 59/59/12
f 65/65/1 59/59/12 64/64/1
f 64/64/1 66/66/2 65/65/1
f 65/65/1 66/66/2 67/67/2
f 66/66/2 68/68/2 67/67/2
f 69/69/1 67/67/2 68/68/2
f 68/68/2 70/70/1 69/69/1
f 71/71/1 69/69/1 70/70/1
f 72/72/1 71/71/1 70/70/1
f 72/72/1 70/70/1 73/73/1
f 74/74/1 72/72/1 73/73/1
f 73/73/1 75/75/1 74/74/1
f 76/76/2 74/74/1 75/75/1
f 77/77/2 76/76/2 75/75/1
f 75/75/1 78/78/1 77/77/2
f 79/79/1 77/77/2 78/78/1
f 79/79/1 78/78/1 80/80/1
f 78/78/1 81/81/1 80/80/1
f 81/81/1 82/82/2 80/80/1
f 83/83/1 80/80/1 82/82/2
f 84/84/2 83/83/1 82/82/2
f 82/82/2 85/85/1 84/84/2
f 86/86/13 84/84/2 85/85/1
f 87/87/13 86/86/13 85/85/1
f 88/88/1 87/87/13 85/85/1
f 85/85/1 89/89/1 88/88/1
f 91/90/14 90/91/14 92/92/14
f 93/93/14 92/92/14 90/91/14
f 93/93/14 94/94/14 92/92/14
f 95/95/14 92/92/14 94/94/14
f 94/94/14 96/96/14 95/95/14
f 97/97/14 95/95/14 96/96/14
f 98/98/14 97/97/14 96/96/14
f 96/96/14 99/99/14 98/98/14
f 96/96/14 100/100/15 99/99/14
f 101/101/16 99/99/14 100/100/15
f 100/100/15 102/102/17 101/101/16
f 90/91/14 91/90/14 103/103/14
f 103/103/14 104/104/14 90/91/14
f 105/105/14 104/104/14 103/103/14
f 103/103/14 106/106/18 105/105/14
f 107/107/14 105/105/14 106/106/18
f 106/106/18 108/108/18 107/107/14
f 108/108/18 109/109/14 107/107/14
f 110/110/14 107/107/14 109/109/14
f 111/111/19 107/107/14 110/110/14
f 110/110/14 112/112/20 111/111/19
f 113/113/21 111/111/19 112/112/20
f 115/114/14 114/115/14 116/116/14
f 116/116/14 117/117/14 115/114/14
f 118/118/22 117/117/14 116/116/14
f 116/116/14 119/119/14 118/118/22
f 120/120/14 118/118/22 119/119/14
f 119/119/14 121/121/14 120/120/14
f 121/121/14 122/122/14 120/120/14
f 123/123/14 120/120/14 122/122/14
f 124/124/23 120/120/14 123/123/14
f 123/123/14 101/101/16 124/124/23
f 102/102/17 124/124/23 101/101/16
f 114/115/14 115/114/14 125/125/14
f 126/126/24 125/125/14 115/114/14
f 126/126/24 127/127/14 125/125/14
f 128/128/14 125/125/14 127/127/14
f 127/127/14 129/129/24 128/128/14
f 130/130/22 128/128/14 129/129/24
f 131/131/24 130/130/22 129/129/24
f 129/129/24 132/132/14 131/131/24
f 129/129/24 133/133/25 132/132/14
f 112/112/20 132/132/14 133/133/25
f 133/133/25 113/113/21 112/112/20
f 135/134/14 134/135/24 136/136/14
f 136/136/14 137/137/14 138/138/14
f 138/138/14 139/139/14 136/136/14
f 140/140/22 135/134/14 136/136/14
f 141/141/18 140/140/22 136/136/14
f 141/141/18 136/136/14 139/139/14
f 142/142/24 141/141/18 139/139/14
f 143/143/26 142/142/24 139/139/14
f 145/144/14 144/145/14 146/146/14
f 146/146/14 147/147/14 145/144/14
f 148/148/14 145/144/14 147/147/14
f 147/147/14 149/149/14 148/148/14
f 149/149/14 150/150/18 148/148/14
f 150/150/18 151/151/18 148/148/14
f 151/151/18 152/152/24 148/148/14
f 152/152/24 153/153/14 148/148/14
f 154/154/14 148/148/14 153/153/14
f 153/153/14 155/155/14 154/154/14
f 154/154/14 155/155/14 156/156/14
f 155/155/14 157/157/14 156/156/14
f 158/158/18 156/156/14 157/157/14
f 157/157/14 159/159/14 158/158/18
f 160/160/24 158/158/18 159/159/14
f 161/161/24 160/160/24 159/159/14
f 161/161/24 159/159/14 162/162/24
f 163/163/14 161/161/24 162/162/24
f 162/162/24 164/164/14 163/163/14
f 165/165/14 163/163/14 164/164/14
f 166/166/14 165/165/14 164/164/14
f 164/164/14 167/167/14 166/166/14
f 168/168/14 166/166/14 167/167/14
f 168/168/14 167/167/14 169/169/14
f 167/167/14 170/170/14 169/169/14
f 170/170/14 171/171/24 169/169/14
f 172/172/24 169/169/14 171/171/24
f 173/173/24 172/172/24 171/171/24
f 171/171/24 174/174/14 173/173/24
f 175/175/24 173/173/24 174/174/14
f 176/176/18 175/175/24 174/174/14
f 177/177/18 176/176/18 174/174/14
f 174/174/14 178/178/18 177/177/18
